# xmcd
#
# Track frame offsets: 
#        150
#        18392
#        31945
#        51933
#        68841
#        87209
#        104560
#        116769
#        130442
#        144639
#        165601
#        178682
#        191025
#        209733
#        223577
#        236472
#
# Disc length: 3413 seconds
#
# Revision: 0
# Processed by: cddbd v1.5.2PL0 Copyright (c) Steve Scherf et al.
# Submitted via: ExactAudioCopy v0.99pb5
#
DISCID=f20d5310
DTITLE=Lightnn' Hopkins - Blues From Dowling Street
DYEAR=2007
DGENRE=Blues
TTITLE0=Found My Baby Crying
TTITLE1=Move On Out
TTITLE2=Back Door Friend
TTITLE3=Fishing Clothes
TTITLE4=Gamblers Blues
TTITLE5=Wigwearing Women
TTITLE6=Lonesome Dog Blues
TTITLE7=Last Affair
TTITLE8=Move On Out pt2
TTITLE9=Mornin' Blues
TTITLE10=Lightnin' Strikes One More Time
TTITLE11=Uncle Stan The Hip Hit Record Man
TTITLE12=Daddy Was A Preacher
TTITLE13=Jail House Blues
TTITLE14=I Hate I Got Married
TTITLE15=Lovin' Arms
EXTD=
EXTT0=
EXTT1=
EXTT2=
EXTT3=
EXTT4=
EXTT5=
EXTT6=
EXTT7=
EXTT8=
EXTT9=
EXTT10=
EXTT11=
EXTT12=
EXTT13=
EXTT14=
EXTT15=
PLAYORDER=
